<svg width="139" height="64" viewBox="0 0 139 64" fill="none" xmlns="http://www.w3.org/2000/svg">
<path d="M75.4093 18.0857C75.4093 18.5668 75.3186 18.9867 75.1372 19.3475C74.9558 19.7084 74.7064 20.0057 74.3866 20.2395C74.0669 20.4732 73.6905 20.648 73.2574 20.7614C72.8243 20.8749 72.3549 20.9317 71.8493 20.9317C71.5613 20.9317 71.2529 20.9158 70.9286 20.8863C70.6044 20.8568 70.2779 20.8114 69.9536 20.7501C69.6293 20.6911 69.3164 20.6094 69.0148 20.5073C68.7133 20.4051 68.4366 20.2826 68.1849 20.1373C68.0058 20.042 67.9627 19.8968 68.0579 19.7039L68.491 18.6939C68.55 18.585 68.6112 18.5169 68.6702 18.4874C68.7291 18.4579 68.8266 18.4715 68.9581 18.5328C69.3912 18.737 69.8697 18.8959 70.4003 19.0094C70.9286 19.1229 71.3958 19.1796 71.8062 19.1796C72.3096 19.1796 72.6883 19.0797 72.94 18.8823C73.1917 18.6848 73.3186 18.4284 73.3186 18.1152C73.3186 17.7657 73.1576 17.4911 72.8334 17.2868C72.5091 17.0826 72.0216 16.8602 71.3753 16.6196C70.8833 16.4403 70.4547 16.2587 70.0874 16.0795C69.72 15.9002 69.4185 15.6982 69.1781 15.4758C68.9377 15.2534 68.7541 15.0037 68.6294 14.7268C68.5024 14.45 68.4411 14.1322 68.4411 13.7714C68.4411 13.3742 68.5137 13.0111 68.6588 12.6797C68.804 12.3484 69.0194 12.0647 69.3028 11.8241C69.5885 11.5836 69.9423 11.3952 70.364 11.2568C70.7858 11.1183 71.2733 11.0502 71.8266 11.0502C72.33 11.0502 72.8356 11.0956 73.339 11.1864C73.8424 11.2772 74.3299 11.4179 74.7971 11.6108C74.8923 11.6585 74.9513 11.7197 74.9671 11.7901C74.983 11.8604 74.983 11.9467 74.9581 12.042L74.5431 13.0701C74.5068 13.1654 74.4615 13.2199 74.4071 13.2335C74.3526 13.2448 74.2778 13.2335 74.1826 13.1972C73.7132 13.0292 73.3028 12.9158 72.949 12.8545C72.5953 12.7955 72.2121 12.7637 71.8062 12.7637C71.3617 12.7637 71.0375 12.8568 70.8334 13.0429C70.6293 13.229 70.5273 13.4378 70.5273 13.6647C70.5273 13.8326 70.5613 13.9779 70.6271 14.0982C70.6928 14.2185 70.7971 14.3297 70.9422 14.4318C71.0874 14.5339 71.2756 14.6383 71.5091 14.7473C71.7427 14.8562 72.0284 14.9697 72.364 15.09C72.7472 15.2352 73.1236 15.3873 73.4887 15.5507C73.8538 15.7118 74.178 15.9092 74.4615 16.1362C74.7426 16.3654 74.9717 16.6355 75.1463 16.9464C75.3209 17.2619 75.4093 17.6409 75.4093 18.0857Z" fill="white"/>
<path d="M84.9375 19.7084C84.9375 19.9966 84.8241 20.194 84.5951 20.303C84.3298 20.4233 84.0463 20.5254 83.7402 20.6094C83.4341 20.6933 83.1189 20.7591 82.7946 20.8068C82.4704 20.8545 82.1484 20.8885 81.8309 20.9067C81.5135 20.9248 81.2096 20.9339 80.9216 20.9339C80.128 20.9339 79.4704 20.8522 78.9489 20.6911C78.4274 20.5299 78.0124 20.3121 77.7063 20.042C77.4002 19.7719 77.187 19.4542 77.0668 19.0865C76.9467 18.7211 76.8877 18.333 76.8877 17.9245C76.8877 17.5047 76.9557 17.0984 77.094 16.7081C77.2324 16.3177 77.4569 15.975 77.7698 15.68C78.0827 15.385 78.4863 15.1489 78.9852 14.9674C79.484 14.7881 80.094 14.6973 80.8128 14.6973H82.8309V14.3909C82.8309 14.1617 82.806 13.9529 82.7584 13.76C82.7107 13.5671 82.6178 13.3991 82.4794 13.2562C82.3411 13.1109 82.1529 13.002 81.9126 12.9226C81.6722 12.8454 81.3593 12.8045 80.9761 12.8045C80.5679 12.8045 80.1235 12.8408 79.6428 12.9135C79.162 12.9861 78.772 13.0701 78.4727 13.1654C78.3412 13.2017 78.2437 13.2085 78.1847 13.1835C78.1235 13.1586 78.0827 13.0928 78.0577 12.9861L77.8061 11.958C77.7584 11.7651 77.8129 11.6403 77.967 11.579C78.4704 11.3861 79.0237 11.2522 79.6246 11.1728C80.2255 11.0956 80.7901 11.0547 81.3185 11.0547C82.5679 11.0547 83.4817 11.3316 84.0645 11.8831C84.6472 12.4369 84.9375 13.2426 84.9375 14.2979V19.7084ZM82.8128 16.3018H81.0826C80.8786 16.3018 80.6586 16.3132 80.4251 16.3382C80.1915 16.3631 79.9693 16.4289 79.7584 16.5356C79.5475 16.6445 79.3729 16.8011 79.2369 17.0054C79.0985 17.2096 79.0305 17.4933 79.0305 17.8519C79.0305 18.3694 79.2051 18.7302 79.5521 18.9345C79.9013 19.1387 80.3638 19.2408 80.9398 19.2408C81.0237 19.2408 81.1416 19.2386 81.2913 19.2318C81.4409 19.225 81.5996 19.2113 81.7697 19.1864C81.9375 19.1614 82.1144 19.1319 82.3003 19.0956C82.4863 19.0593 82.6586 19.0116 82.8128 18.9504V16.3018Z" fill="white"/>
<path d="M90.7922 12.8567C90.6607 12.8567 90.4702 12.859 90.2253 12.8658C89.9782 12.8726 89.6947 12.9044 89.3705 12.9657V20.4301C89.3705 20.5617 89.3455 20.6457 89.2979 20.682C89.2503 20.7183 89.1596 20.7365 89.0281 20.7365H87.6222C87.502 20.7365 87.4158 20.7183 87.3614 20.682C87.307 20.6457 87.2798 20.5617 87.2798 20.4301V12.7138C87.2798 12.2803 87.3569 11.9444 87.5133 11.7038C87.6698 11.4633 87.9918 11.3021 88.4838 11.2182C88.604 11.2068 88.765 11.1886 88.9691 11.1637C89.1732 11.1387 89.3886 11.1206 89.6153 11.1092C89.8421 11.0979 90.0643 11.0843 90.2797 11.0729C90.4952 11.0616 90.6811 11.0547 90.8376 11.0547C91.6289 11.0547 92.3137 11.1387 92.8965 11.3067C93.477 11.4746 93.9577 11.7424 94.3341 12.1101C94.7105 12.4777 94.9894 12.9543 95.1708 13.5421C95.3499 14.1322 95.4407 14.8403 95.4407 15.6686V20.4278C95.4407 20.5594 95.4157 20.6434 95.3704 20.6797C95.3227 20.716 95.2343 20.7342 95.1028 20.7342H93.6924C93.5722 20.7342 93.486 20.716 93.4339 20.6797C93.3795 20.6434 93.3545 20.5594 93.3545 20.4278V15.6346C93.3545 15.1648 93.316 14.7563 93.2366 14.4091C93.1595 14.0596 93.0235 13.7713 92.8307 13.5444C92.638 13.3152 92.3772 13.145 92.0461 13.0315C91.7128 12.9157 91.2956 12.8567 90.7922 12.8567Z" fill="white"/>
<path d="M103.518 20.5118C103.511 20.5662 103.454 20.6162 103.348 20.6661C102.939 20.7977 102.531 20.8772 102.123 20.8999C101.715 20.9248 101.395 20.9362 101.168 20.9362C100.184 20.9362 99.486 20.7251 99.0801 20.3053C98.6719 19.8854 98.4679 19.2409 98.4679 18.3762V12.8749H97.189C97.0575 12.8749 96.9758 12.8477 96.9464 12.7932C96.9169 12.7387 96.901 12.6638 96.901 12.5685V11.8287C96.901 11.7197 96.9191 11.6426 96.9554 11.5949C96.9917 11.5472 97.0688 11.5109 97.189 11.486L98.5586 11.1796L98.7921 9.46611C98.8171 9.33448 98.8556 9.2437 98.91 9.19604C98.9645 9.14838 99.0574 9.10072 99.1889 9.05079L100.234 8.68994C100.33 8.66497 100.409 8.67405 100.468 8.71717C100.527 8.76029 100.559 8.84653 100.559 8.97817V11.2681H102.486C102.617 11.2681 102.699 11.2953 102.729 11.3498C102.758 11.4043 102.774 11.4723 102.774 11.5563V12.5663C102.774 12.6752 102.758 12.7523 102.729 12.8C102.699 12.8477 102.617 12.8726 102.486 12.8726H100.559V18.1016C100.559 18.4874 100.649 18.7506 100.828 18.8959C101.008 19.0411 101.284 19.1115 101.656 19.1115C101.729 19.1115 101.824 19.1092 101.944 19.1024C102.064 19.0956 102.187 19.0865 102.314 19.0752C102.441 19.0638 102.565 19.048 102.692 19.0298C102.819 19.0116 102.924 18.9958 103.007 18.9844C103.128 18.9594 103.205 18.964 103.241 18.9935C103.277 19.023 103.3 19.0797 103.314 19.1637L103.511 20.3166C103.52 20.3938 103.522 20.4573 103.518 20.5118Z" fill="white"/>
<path d="M112.567 19.7084C112.567 19.9966 112.454 20.194 112.225 20.303C111.96 20.4233 111.676 20.5254 111.37 20.6094C111.064 20.6933 110.749 20.7591 110.425 20.8068C110.1 20.8545 109.778 20.8885 109.461 20.9067C109.143 20.9248 108.84 20.9339 108.552 20.9339C107.758 20.9339 107.1 20.8522 106.579 20.6911C106.057 20.5299 105.642 20.3121 105.336 20.042C105.03 19.7719 104.817 19.4542 104.697 19.0865C104.577 18.7211 104.518 18.333 104.518 17.9245C104.518 17.5047 104.586 17.0984 104.724 16.7081C104.862 16.3177 105.087 15.975 105.4 15.68C105.713 15.385 106.116 15.1489 106.615 14.9674C107.114 14.7881 107.724 14.6973 108.443 14.6973H110.461V14.3909C110.461 14.1617 110.436 13.9529 110.388 13.76C110.341 13.5671 110.248 13.3991 110.109 13.2562C109.971 13.1109 109.783 13.002 109.543 12.9226C109.302 12.8454 108.989 12.8045 108.606 12.8045C108.198 12.8045 107.753 12.8408 107.273 12.9135C106.792 12.9861 106.402 13.0701 106.103 13.1654C105.971 13.2017 105.874 13.2085 105.815 13.1835C105.754 13.1586 105.713 13.0928 105.688 12.9861L105.436 11.958C105.388 11.7651 105.443 11.6403 105.597 11.579C106.1 11.3861 106.654 11.2522 107.255 11.1728C107.856 11.0956 108.42 11.0547 108.948 11.0547C110.198 11.0547 111.112 11.3316 111.694 11.8831C112.277 12.4369 112.567 13.2426 112.567 14.2979V19.7084ZM110.443 16.3018H108.713C108.509 16.3018 108.289 16.3132 108.055 16.3382C107.822 16.3631 107.599 16.4289 107.388 16.5356C107.178 16.6445 107.003 16.8011 106.867 17.0054C106.729 17.2096 106.661 17.4933 106.661 17.8519C106.661 18.3694 106.835 18.7302 107.182 18.9345C107.531 19.1387 107.994 19.2408 108.57 19.2408C108.654 19.2408 108.772 19.2386 108.921 19.2318C109.071 19.225 109.23 19.2113 109.4 19.1864C109.568 19.1614 109.744 19.1319 109.93 19.0956C110.116 19.0593 110.289 19.0116 110.443 18.9504V16.3018Z" fill="white"/>
<path d="M72.6882 35.4792C73.0714 35.4792 73.4569 35.4315 73.8401 35.3339C74.2233 35.2386 74.5431 35.1297 74.7948 35.0094C74.9263 34.9504 75.0192 34.9322 75.0737 34.9549C75.1281 34.9799 75.1734 35.0389 75.2097 35.1342L75.661 36.1804C75.7811 36.3733 75.7449 36.5231 75.5521 36.6321C75.0601 36.9089 74.5272 37.0928 73.958 37.1813C73.3866 37.2721 72.856 37.3175 72.3639 37.3175C71.0193 37.3175 69.9898 36.9089 69.2756 36.0919C68.5613 35.2749 68.203 34.0607 68.203 32.4494C68.203 31.6914 68.305 31.0037 68.5091 30.3841C68.7132 29.7645 69.0034 29.2358 69.3821 28.7977C69.7608 28.3597 70.2166 28.0216 70.7517 27.7878C71.2869 27.5541 71.89 27.436 72.5612 27.436C73.0533 27.436 73.5317 27.4882 73.992 27.5881C74.4546 27.6902 74.89 27.8491 75.2982 28.067C75.407 28.1282 75.4728 28.1872 75.4954 28.2462C75.5204 28.3075 75.5022 28.396 75.441 28.5163L74.9898 29.5807C74.9421 29.676 74.89 29.7373 74.8378 29.76C74.7834 29.785 74.6836 29.7668 74.5408 29.7055C74.2528 29.5966 73.9535 29.5036 73.6406 29.4264C73.3277 29.3492 72.9989 29.3084 72.6497 29.3084C72.2415 29.3084 71.89 29.3946 71.5952 29.5694C71.3005 29.7441 71.0601 29.9756 70.8742 30.2638C70.6882 30.5521 70.5522 30.8857 70.4683 31.2647C70.3844 31.6437 70.3413 32.0363 70.3413 32.4448C70.3413 32.8647 70.3776 33.2596 70.4501 33.625C70.5227 33.9926 70.6452 34.3126 70.8198 34.5895C70.9944 34.8664 71.2302 35.082 71.5318 35.2386C71.8356 35.402 72.2211 35.4792 72.6882 35.4792Z" fill="white"/>
<path d="M85.1348 36.0919C85.1348 36.3802 85.0214 36.5776 84.7924 36.6865C84.5271 36.8068 84.2436 36.909 83.9375 36.9929C83.6314 37.0769 83.3162 37.1427 82.9919 37.1904C82.6677 37.238 82.3457 37.2721 82.0282 37.2902C81.7108 37.3084 81.4069 37.3175 81.1189 37.3175C80.3253 37.3175 79.6677 37.2358 79.1462 37.0746C78.6246 36.9135 78.2097 36.6956 77.9035 36.4255C77.5974 36.1555 77.3843 35.8377 77.2641 35.4701C77.1439 35.1047 77.085 34.7166 77.085 34.3081C77.085 33.8882 77.153 33.482 77.2913 33.0917C77.4296 32.7013 77.6541 32.3586 77.967 32.0636C78.28 31.7685 78.6836 31.5325 79.1824 31.3509C79.6813 31.1717 80.2913 31.0809 81.0101 31.0809H83.0282V30.7745C83.0282 30.5453 83.0033 30.3365 82.9556 30.1436C82.908 29.9507 82.815 29.7827 82.6767 29.6397C82.5384 29.4945 82.3502 29.3856 82.1098 29.3061C81.8695 29.229 81.5566 29.1881 81.1734 29.1881C80.7652 29.1881 80.3208 29.2244 79.84 29.297C79.3593 29.3697 78.9693 29.4536 78.67 29.549C78.5385 29.5853 78.441 29.5921 78.382 29.5671C78.3208 29.5422 78.28 29.4763 78.255 29.3697L78.0033 28.3416C77.9557 28.1487 78.0101 28.0239 78.1643 27.9626C78.6677 27.7697 79.221 27.6358 79.8219 27.5563C80.4228 27.4792 80.9874 27.4383 81.5157 27.4383C82.7652 27.4383 83.679 27.7152 84.2618 28.2667C84.8445 28.8205 85.1348 29.6261 85.1348 30.6814V36.0919ZM83.0101 32.6854H81.2799C81.0758 32.6854 80.8559 32.6968 80.6223 32.7217C80.3888 32.7467 80.1666 32.8125 79.9557 32.9192C79.7448 33.0281 79.5702 33.1847 79.4341 33.389C79.2958 33.5932 79.2278 33.8769 79.2278 34.2355C79.2278 34.7529 79.4024 35.1138 79.7493 35.318C80.0985 35.5223 80.5611 35.6244 81.1371 35.6244C81.221 35.6244 81.3389 35.6221 81.4885 35.6153C81.6382 35.6085 81.7969 35.5949 81.967 35.5699C82.1348 35.545 82.3117 35.5155 82.4976 35.4792C82.6835 35.4429 82.8559 35.3952 83.0101 35.3339V32.6854Z" fill="white"/>
<path d="M93.1958 36.8953C93.189 36.9498 93.1323 36.9997 93.0257 37.0496C92.6176 37.1813 92.2094 37.2607 91.8012 37.2834C91.3931 37.3084 91.0756 37.3197 90.8466 37.3197C89.8625 37.3197 89.1641 37.1086 88.7582 36.6888C88.35 36.2689 88.146 35.6244 88.146 34.7597V29.2607H86.8671C86.7356 29.2607 86.6539 29.2335 86.6244 29.179C86.595 29.1245 86.5791 29.0496 86.5791 28.9543V28.2145C86.5791 28.1055 86.5972 28.0284 86.6335 27.9807C86.6698 27.933 86.7469 27.8967 86.8671 27.8718L88.2367 27.5654L88.4702 25.8519C88.4952 25.7203 88.5337 25.6295 88.5881 25.5818C88.6426 25.5342 88.7355 25.4865 88.867 25.4366L89.9124 25.0757C90.0076 25.0508 90.087 25.0599 90.1459 25.103C90.2049 25.1461 90.2366 25.2323 90.2366 25.364V27.6539H92.164C92.2956 27.6539 92.3772 27.6811 92.4067 27.7356C92.4361 27.7901 92.452 27.8582 92.452 27.9421V28.9521C92.452 29.061 92.4361 29.1382 92.4067 29.1858C92.3772 29.2335 92.2956 29.2584 92.164 29.2584H90.2366V34.4874C90.2366 34.8732 90.3273 35.1364 90.5065 35.2817C90.6856 35.4269 90.9623 35.4973 91.3341 35.4973C91.4067 35.4973 91.5019 35.495 91.6221 35.4882C91.7423 35.4814 91.8647 35.4723 91.9917 35.461C92.1187 35.4496 92.2434 35.4338 92.3704 35.4156C92.4974 35.3974 92.6017 35.3816 92.6856 35.3702C92.8058 35.3452 92.8829 35.3498 92.9191 35.3793C92.9554 35.4088 92.9781 35.4655 92.9917 35.5495L93.189 36.7024C93.198 36.7773 93.2026 36.8408 93.1958 36.8953Z" fill="white"/>
<path d="M102.248 36.0919C102.248 36.3802 102.134 36.5776 101.905 36.6865C101.64 36.8068 101.357 36.909 101.051 36.9929C100.744 37.0769 100.429 37.1427 100.105 37.1904C99.7807 37.238 99.4587 37.2721 99.1412 37.2902C98.8238 37.3084 98.5199 37.3175 98.2319 37.3175C97.4383 37.3175 96.783 37.2358 96.2592 37.0746C95.7377 36.9135 95.3227 36.6956 95.0166 36.4255C94.7105 36.1555 94.4973 35.8377 94.3771 35.4701C94.2569 35.1047 94.198 34.7166 94.198 34.3081C94.198 33.8882 94.266 33.482 94.4043 33.0917C94.5427 32.7013 94.7671 32.3586 95.0801 32.0636C95.393 31.7685 95.7966 31.5325 96.2955 31.3509C96.7943 31.1717 97.402 31.0809 98.1231 31.0809H100.141V30.7745C100.141 30.5453 100.116 30.3365 100.069 30.1436C100.021 29.9507 99.9281 29.7827 99.7897 29.6397C99.6514 29.4945 99.4632 29.3856 99.2229 29.3061C98.9825 29.229 98.6696 29.1881 98.2864 29.1881C97.8782 29.1881 97.4338 29.2244 96.9531 29.297C96.4723 29.3697 96.0823 29.4536 95.783 29.549C95.6515 29.5853 95.554 29.5921 95.495 29.5671C95.4338 29.5422 95.393 29.4763 95.368 29.3697L95.1163 28.3416C95.0687 28.1487 95.1231 28.0239 95.2773 27.9626C95.7807 27.7697 96.334 27.6358 96.9349 27.5563C97.5358 27.4792 98.1004 27.4383 98.6288 27.4383C99.8782 27.4383 100.792 27.7152 101.375 28.2667C101.958 28.8205 102.248 29.6261 102.248 30.6814V36.0919ZM100.121 32.6854H98.3907C98.1866 32.6854 97.9666 32.6968 97.7331 32.7217C97.4995 32.7467 97.2773 32.8125 97.0664 32.9192C96.8556 33.0258 96.6809 33.1847 96.5449 33.389C96.4066 33.5932 96.3385 33.8769 96.3385 34.2355C96.3385 34.7529 96.5132 35.1138 96.8601 35.318C97.2093 35.5223 97.6696 35.6244 98.2478 35.6244C98.3317 35.6244 98.4496 35.6221 98.5993 35.6153C98.7489 35.6085 98.9077 35.5949 99.0755 35.5699C99.2433 35.545 99.4201 35.5155 99.6061 35.4792C99.792 35.4429 99.9643 35.3952 100.119 35.3339V32.6854H100.121Z" fill="white"/>
<path d="M106.758 37.0655C106.704 37.1019 106.611 37.12 106.479 37.12H105.091C104.971 37.12 104.885 37.1019 104.831 37.0655C104.776 37.0292 104.749 36.9453 104.749 36.8136V29.0792C104.749 28.598 104.831 28.2417 104.992 28.0057C105.153 27.7697 105.493 27.6176 106.01 27.545C106.225 27.52 106.445 27.4996 106.667 27.4814C106.889 27.4633 107.114 27.4542 107.343 27.4542C108.075 27.4542 108.781 27.5495 109.459 27.7424C110.137 27.9353 110.753 28.2599 111.304 28.716C111.388 28.7773 111.427 28.8341 111.422 28.8862C111.415 28.9407 111.395 28.9975 111.359 29.0565L110.531 30.2457C110.47 30.341 110.411 30.3841 110.352 30.3728C110.291 30.3614 110.22 30.3251 110.137 30.2638C109.787 29.9643 109.413 29.7328 109.012 29.5694C108.61 29.4082 108.168 29.3265 107.688 29.3265C107.542 29.3265 107.4 29.3333 107.255 29.3447C107.112 29.356 106.973 29.3742 106.84 29.3992V36.8091C106.84 36.9453 106.812 37.0292 106.758 37.0655Z" fill="white"/>
<path d="M115.234 25.1847C115.234 25.5455 115.107 25.8519 114.855 26.1038C114.604 26.3558 114.297 26.4828 113.937 26.4828C113.576 26.4828 113.27 26.3558 113.019 26.1038C112.767 25.8519 112.64 25.5455 112.64 25.1847C112.64 24.8238 112.767 24.5175 113.019 24.2655C113.27 24.0136 113.576 23.8865 113.937 23.8865C114.297 23.8865 114.604 24.0136 114.855 24.2655C115.107 24.5175 115.234 24.8238 115.234 25.1847ZM114.964 36.8136C114.964 36.9453 114.937 37.0292 114.882 37.0655C114.828 37.1019 114.735 37.12 114.604 37.12H113.216C113.096 37.12 113.01 37.1019 112.955 37.0655C112.901 37.0292 112.873 36.9453 112.873 36.8136V27.9626C112.873 27.8309 112.901 27.747 112.955 27.7106C113.01 27.6743 113.096 27.6562 113.216 27.6562H114.604C114.735 27.6562 114.828 27.6743 114.882 27.7106C114.937 27.747 114.964 27.8309 114.964 27.9626V36.8136Z" fill="white"/>
<path d="M121.177 29.2426C121.046 29.2426 120.855 29.2448 120.61 29.2516C120.363 29.2585 120.08 29.2902 119.755 29.3515V36.8159C119.755 36.9475 119.731 37.0315 119.683 37.0678C119.635 37.1041 119.545 37.1223 119.413 37.1223H118.007C117.887 37.1223 117.801 37.1041 117.746 37.0678C117.692 37.0315 117.665 36.9475 117.665 36.8159V29.0996C117.665 28.6661 117.742 28.3302 117.898 28.0897C118.055 27.8491 118.377 27.688 118.869 27.604C118.989 27.5926 119.15 27.5745 119.354 27.5495C119.558 27.5246 119.774 27.5064 120 27.495C120.227 27.4837 120.449 27.4701 120.665 27.4587C120.88 27.4474 121.066 27.4406 121.223 27.4406C122.014 27.4406 122.699 27.5246 123.281 27.6925C123.862 27.8604 124.343 28.1282 124.719 28.4959C125.096 28.8636 125.374 29.3402 125.556 29.928C125.735 30.518 125.826 31.2261 125.826 32.0545V36.8136C125.826 36.9453 125.801 37.0292 125.755 37.0655C125.708 37.1019 125.619 37.12 125.488 37.12H124.077C123.957 37.12 123.871 37.1019 123.819 37.0655C123.764 37.0292 123.74 36.9453 123.74 36.8136V32.0182C123.74 31.5484 123.701 31.1399 123.622 30.7926C123.545 30.4431 123.408 30.1549 123.216 29.928C123.023 29.6987 122.762 29.5285 122.431 29.415C122.1 29.2993 121.683 29.2426 121.177 29.2426Z" fill="white"/>
<path d="M135.875 36.0919C135.875 36.3802 135.762 36.5776 135.533 36.6865C135.268 36.8068 134.984 36.909 134.678 36.9929C134.372 37.0769 134.057 37.1427 133.733 37.1904C133.408 37.238 133.086 37.2721 132.769 37.2902C132.451 37.3084 132.147 37.3175 131.86 37.3175C131.066 37.3175 130.408 37.2358 129.887 37.0746C129.365 36.9135 128.95 36.6956 128.644 36.4255C128.338 36.1555 128.125 35.8377 128.005 35.4701C127.885 35.1047 127.826 34.7166 127.826 34.3081C127.826 33.8882 127.894 33.482 128.032 33.0917C128.17 32.7013 128.395 32.3586 128.708 32.0636C129.021 31.7685 129.424 31.5325 129.923 31.3509C130.422 31.1717 131.032 31.0809 131.751 31.0809H133.769V30.7745C133.769 30.5453 133.744 30.3365 133.696 30.1436C133.649 29.9507 133.556 29.7827 133.417 29.6397C133.279 29.4945 133.091 29.3856 132.85 29.3061C132.61 29.229 132.297 29.1881 131.914 29.1881C131.506 29.1881 131.061 29.2244 130.581 29.297C130.1 29.3697 129.71 29.4536 129.411 29.549C129.279 29.5853 129.182 29.5921 129.123 29.5671C129.061 29.5422 129.021 29.4763 128.996 29.3697L128.744 28.3416C128.696 28.1487 128.751 28.0239 128.905 27.9626C129.408 27.7697 129.962 27.6358 130.562 27.5563C131.163 27.4792 131.728 27.4383 132.256 27.4383C133.506 27.4383 134.42 27.7152 135.002 28.2667C135.585 28.8205 135.875 29.6261 135.875 30.6814V36.0919ZM133.751 32.6854H132.021C131.816 32.6854 131.596 32.6968 131.363 32.7217C131.129 32.7467 130.907 32.8125 130.696 32.9192C130.485 33.0281 130.311 33.1847 130.175 33.389C130.036 33.5932 129.968 33.8769 129.968 34.2355C129.968 34.7529 130.143 35.1138 130.49 35.318C130.839 35.5223 131.302 35.6244 131.878 35.6244C131.962 35.6244 132.079 35.6221 132.229 35.6153C132.379 35.6085 132.538 35.5949 132.708 35.5699C132.875 35.545 133.052 35.5155 133.238 35.4792C133.424 35.4429 133.596 35.3952 133.751 35.3339V32.6854Z" fill="white"/>
<path d="M77.5316 55.2692H71.9648C71.2437 55.2692 70.6587 55.1671 70.2075 54.9628C69.7562 54.7586 69.4025 54.4908 69.144 54.1617C68.8855 53.8303 68.7086 53.4627 68.6134 53.0519C68.5181 52.6434 68.4683 52.2417 68.4683 51.8445V46.0754C68.4683 45.642 68.5272 45.2198 68.6474 44.8045C68.7676 44.3892 68.9626 44.0238 69.2324 43.7038C69.5023 43.3861 69.8605 43.1296 70.305 42.9367C70.7494 42.7438 71.2891 42.6485 71.9263 42.6485H77.2391C77.3842 42.6485 77.4772 42.6689 77.518 42.712C77.5611 42.7552 77.5815 42.8777 77.5815 43.082V45.12C77.5815 45.2766 77.5565 45.381 77.5089 45.4354C77.4613 45.4899 77.3706 45.5171 77.2391 45.5171H72.9512C72.7108 45.5171 72.5181 45.5512 72.3752 45.617C72.2301 45.6828 72.1235 45.7645 72.051 45.8598C71.9784 45.9552 71.9308 46.0641 71.9058 46.1844C71.8809 46.3047 71.8696 46.425 71.8696 46.5452V47.3032H76.6971C76.8423 47.3032 76.933 47.3282 76.9761 47.3759C77.0169 47.4235 77.0395 47.5506 77.0395 47.7549V49.6295C77.0395 49.9064 76.9262 50.0448 76.6971 50.0448H71.8696V51.3974C71.8696 51.6267 71.8968 51.8059 71.9512 51.9376C72.0056 52.0692 72.0804 52.1691 72.1757 52.2349C72.2709 52.3007 72.3866 52.3438 72.5181 52.362C72.6496 52.3801 72.7947 52.3892 72.9512 52.3892H77.5271C77.6722 52.3892 77.7629 52.4096 77.806 52.4527C77.8468 52.4959 77.8695 52.6184 77.8695 52.8227V54.8607C77.874 55.133 77.7606 55.2692 77.5316 55.2692Z" fill="white"/>
<path d="M85.6562 52.421C86.2684 52.421 86.79 52.3483 87.2231 52.2054C87.6562 52.0601 88.0643 51.9171 88.4475 51.7719C88.6267 51.6993 88.7559 51.6766 88.8353 51.6993C88.9124 51.7242 88.994 51.8377 89.0779 52.042L89.8534 53.6646C89.9373 53.8439 89.9736 53.9824 89.9623 54.08C89.9509 54.1753 89.8784 54.2593 89.7468 54.3319C89.0258 54.7654 88.3047 55.0627 87.5859 55.2238C86.8648 55.3849 86.1142 55.4666 85.3342 55.4666C84.2662 55.4666 83.3614 55.301 82.6222 54.9719C81.883 54.6405 81.2821 54.1866 80.8218 53.6102C80.3592 53.0337 80.0236 52.3483 79.8128 51.554C79.6019 50.7597 79.4976 49.895 79.4976 48.9577C79.4976 47.9841 79.6404 47.1012 79.9307 46.3069C80.2186 45.5126 80.6245 44.8318 81.1461 44.2598C81.6676 43.6902 82.2957 43.2476 83.0281 42.9344C83.7605 42.6213 84.5701 42.4647 85.4589 42.4647C86.1551 42.4647 86.8058 42.5214 87.4135 42.6349C88.019 42.7483 88.5881 42.9571 89.1165 43.2567C89.2117 43.318 89.2865 43.3657 89.341 43.402C89.3954 43.4383 89.4249 43.4837 89.4317 43.5381C89.4385 43.5926 89.4317 43.6584 89.4135 43.7356C89.3954 43.815 89.3614 43.9126 89.3137 44.0329L88.6834 45.5103C88.5995 45.7395 88.5178 45.8735 88.4407 45.9166C88.3636 45.9597 88.2163 45.9438 87.9986 45.8712C87.7582 45.7986 87.5428 45.735 87.3501 45.6828C87.1573 45.6283 86.9691 45.583 86.7832 45.5466C86.5972 45.5103 86.4113 45.4876 86.2254 45.474C86.0394 45.4627 85.8376 45.4559 85.6222 45.4559C84.8784 45.4559 84.2707 45.7532 83.8036 46.3478C83.3342 46.9424 83.1007 47.8116 83.1007 48.9532C83.1007 50.0834 83.2957 50.9435 83.6857 51.5313C84.0735 52.1282 84.731 52.421 85.6562 52.421Z" fill="white"/>
<path d="M102.982 48.9418C102.982 49.9518 102.874 50.8596 102.658 51.6652C102.443 52.4709 102.103 53.1563 101.64 53.7214C101.177 54.2865 100.581 54.72 99.8487 55.0196C99.1163 55.3191 98.2388 55.4712 97.2184 55.4712C96.2456 55.4712 95.4021 55.3237 94.6878 55.0286C93.9735 54.7336 93.3885 54.3069 92.9304 53.7486C92.4747 53.1903 92.1345 52.5072 91.9123 51.7015C91.6901 50.8959 91.579 49.9881 91.579 48.9804C91.579 47.9954 91.7014 47.099 91.9486 46.2933C92.1935 45.4876 92.554 44.8 93.0302 44.2281C93.5041 43.6584 94.096 43.2181 94.8034 42.9118C95.5109 42.6054 96.334 42.451 97.2705 42.451C98.2433 42.451 99.0868 42.6054 99.8011 42.9118C100.515 43.2181 101.109 43.6539 101.583 44.219C102.057 44.7841 102.409 45.4649 102.638 46.2661C102.869 47.0649 102.982 47.9569 102.982 48.9418ZM99.3997 48.96C99.3884 48.4902 99.3476 48.0431 99.2818 47.6164C99.2161 47.1898 99.105 46.8198 98.9485 46.5067C98.792 46.1935 98.5766 45.9438 98.3 45.7577C98.0233 45.5716 97.6764 45.4786 97.2546 45.4786C96.9054 45.4786 96.5993 45.5693 96.3363 45.7486C96.071 45.9279 95.8556 46.173 95.6878 46.4794C95.52 46.7858 95.393 47.1444 95.3091 47.5529C95.2252 47.9614 95.1821 48.3881 95.1821 48.8329C95.1821 49.3867 95.2184 49.8837 95.291 50.3285C95.3635 50.7733 95.4837 51.1478 95.6515 51.4542C95.8193 51.7606 96.0415 51.9988 96.3181 52.1668C96.5948 52.3347 96.9372 52.4187 97.3453 52.4187C97.7422 52.4187 98.071 52.3257 98.3363 52.1396C98.5993 51.9535 98.8102 51.7015 98.9666 51.3815C99.1231 51.0638 99.2342 50.6939 99.3 50.2718C99.3657 49.8564 99.3997 49.4162 99.3997 48.96Z" fill="white"/>
<path fill-rule="evenodd" clip-rule="evenodd" d="M27.9088 14.3728C20.6935 14.3728 14.8229 20.2485 14.8229 27.4678C14.8229 29.9643 15.5258 32.2996 16.7412 34.2877C19.6459 35.0116 22.7456 36.682 25.6912 39.9796C26.5347 39.9228 31.7364 39.4417 37.666 36.1804C39.7318 33.8633 40.9903 30.8108 40.9903 27.4701C40.9925 20.2485 35.1241 14.3728 27.9088 14.3728Z" fill="white"/>
<path fill-rule="evenodd" clip-rule="evenodd" d="M27.8386 8.62866C17.5349 8.62866 9.15405 17.019 9.15405 27.3294C9.15405 29.6851 9.59622 31.9387 10.3944 34.0176C12.0633 33.7657 13.9658 33.7226 15.9793 34.1175C14.8796 32.1475 14.2492 29.8803 14.2492 27.4678C14.2492 19.9285 20.3761 13.7963 27.9089 13.7963C35.4416 13.7963 41.5685 19.9285 41.5685 27.4678C41.5685 30.4522 40.6048 33.2142 38.979 35.4633C41.2964 34.2514 43.4301 33.945 45.2555 34.0902C46.0718 31.9909 46.5253 29.7123 46.5253 27.3294C46.5231 17.019 38.1422 8.62866 27.8386 8.62866Z" fill="white"/>
<path fill-rule="evenodd" clip-rule="evenodd" d="M44.9517 10.0675C35.4303 0.535601 19.9906 0.535601 10.467 10.0675C3.52378 17.019 1.6508 27.1206 4.83669 35.7764C5.78452 35.2976 7.55546 34.5305 9.81166 34.1152C9.01576 32.0023 8.57586 29.7169 8.57586 27.3294C8.57586 16.699 17.2152 8.0522 27.8363 8.0522C38.4575 8.0522 47.0968 16.699 47.0968 27.3294C47.0968 29.7305 46.6523 32.0295 45.8474 34.1538C47.8201 34.4216 49.387 35.1841 50.3552 35.7833C53.7724 27.1251 51.8994 17.0213 44.9517 10.0675Z" fill="white"/>
<path fill-rule="evenodd" clip-rule="evenodd" d="M25.6686 40.817C17.2537 30.9084 7.38768 35.0979 4.9342 36.3756C4.94554 36.4051 4.95688 36.4346 4.96822 36.4641C6.15867 39.419 7.95003 42.1878 10.3423 44.5821L26.2944 60.5481C27.0064 61.2607 28.1606 61.2607 28.8726 60.5481L37.5595 51.8536C36.0561 51.2386 32.6004 48.9782 25.6686 40.817Z" fill="white"/>
<path fill-rule="evenodd" clip-rule="evenodd" d="M38.6797 36.2735C33.0176 39.5801 27.8545 40.3472 26.1697 40.5152C33.555 49.2006 36.9042 51.0207 38.0108 51.3997L44.8247 44.5799C47.2374 42.1651 49.0333 39.3645 50.2237 36.3824C48.4256 35.2182 44.022 33.1552 38.6797 36.2735Z" fill="white"/>
</svg>
